<?xml version="1.0" standalone="no"?>
<!DOCTYPE svg PUBLIC "-//W3C//DTD SVG 20010904//EN"
        "http://www.w3.org/TR/2001/REC-SVG-20010904/DTD/svg10.dtd">
<svg version="1.0" xmlns="http://www.w3.org/2000/svg"
     width="25.000000pt" height="25.000000pt" viewBox="0 0 256.000000 256.000000"
     preserveAspectRatio="xMidYMid meet">

    <g transform="translate(0.000000,256.000000) scale(0.100000,-0.100000)"
       fill="#FDE5E5" stroke="none">
        <path d="M1110 2544 c-161 -29 -293 -70 -398 -123 -496 -250 -779 -789 -697
-1329 76 -506 425 -903 919 -1046 49 -15 99 -26 112 -26 l24 0 -2 493 -3 492
-152 3 -153 3 0 179 0 180 155 0 155 0 0 178 c0 135 4 192 16 233 49 165 148
262 311 304 60 16 232 20 342 9 l61 -7 0 -157 0 -158 -132 -4 c-213 -6 -228
-23 -228 -252 l0 -146 175 0 176 0 -7 -47 c-3 -27 -13 -106 -22 -178 l-17
-130 -152 -3 -153 -3 0 -500 0 -501 53 7 c126 17 310 84 435 159 340 202 560
531 617 921 72 495 -155 988 -581 1260 -118 76 -239 127 -394 166 -67 16 -122
22 -260 24 -96 2 -186 1 -200 -1z"/>
    </g>
</svg>
